<svg xmlns="http://www.w3.org/2000/svg" width="128" height="128" viewBox="0 0 128 128">
<defs>
  <linearGradient id="bgGradient" x1="0%" y1="0%" x2="100%" y2="0%">
    <stop offset="0%" stop-color="lime" stop-opacity="1" />
    <stop offset="100%" stop-color="yellow" stop-opacity="1" />
  </linearGradient>
</defs>
  <rect x="0" y="0" width="128" height="128" rx="64.0" ry="64.0" fill="url(#bgGradient)" />
  <g transform="translate(64.0,64.0) scale(0.7) translate(-64.0,-64.0)">
<ns0:path xmlns:ns0="http://www.w3.org/2000/svg" fill="#fff" d="M127.562 91.939a11.8 11.8 0 0 0-1.6-3.538q.234-.856.352-1.734c.516-3.714-.772-7.115-3.198-9.745c-1.315-1.437-2.724-2.386-4.216-2.969c.98-4.19 1.475-8.48 1.477-12.782c0-1.966-.11-3.892-.297-5.788a66 66 0 0 0-.353-2.834a56.6 56.6 0 0 0-1.896-8.21a57 57 0 0 0-1.898-5.205a57 57 0 0 0-3.754-7.305a51 51 0 0 0-3.05-4.513a43 43 0 0 0-1.68-2.142a56 56 0 0 0-5.614-5.895a44 44 0 0 0-2.06-1.779a51 51 0 0 0-2.129-1.68a60 60 0 0 0-4.513-3.05C84.568 7.568 74.524 4.585 63.79 4.585c-31.256 0-56.588 25.333-56.588 56.587a56.3 56.3 0 0 0 1.504 12.942c-1.342.583-2.629 1.492-3.822 2.806c-2.426 2.63-3.714 6.018-3.199 9.732q.118.886.353 1.748a11.8 11.8 0 0 0-1.6 3.539c-.745 2.834-.5 5.39.448 7.63c-1.03 2.928-.773 6.045.569 8.755c.976 1.98 2.372 3.511 4.094 4.88c2.046 1.627 4.608 3.009 7.698 4.335c3.687 1.573 8.187 3.05 10.233 3.592c5.287 1.368 10.356 2.236 15.493 2.278c7.32.068 13.622-1.653 18.135-6.057c2.217.271 4.449.407 6.682.406a58 58 0 0 0 7.06-.444c4.501 4.432 10.829 6.169 18.175 6.099c5.136-.041 10.205-.909 15.478-2.28c2.06-.541 6.559-2.018 10.247-3.59c3.09-1.329 5.652-2.711 7.712-4.336c1.709-1.369 3.104-2.9 4.08-4.879c1.356-2.71 1.6-5.828.583-8.755c.939-2.24 1.183-4.802.438-7.634zm-5.246 7.44c1.039 1.972 1.105 4.198.19 6.272c-1.39 3.143-4.842 5.62-11.546 8.277c-4.169 1.654-7.986 2.71-8.02 2.72c-5.514 1.43-10.5 2.157-14.817 2.157c-7.149 0-12.468-1.973-15.842-5.869a53.1 53.1 0 0 1-17.244.099c-3.378 3.83-8.667 5.77-15.755 5.77c-4.317 0-9.304-.727-14.818-2.157a88 88 0 0 1-8.02-2.72c-6.703-2.658-10.156-5.132-11.545-8.277c-.916-2.074-.85-4.3.189-6.271q.143-.275.309-.535a7.96 7.96 0 0 1-1.074-6.426c.412-1.568 1.264-2.872 2.422-3.809a7.9 7.9 0 0 1-1.076-2.997c-.333-2.308.434-4.612 2.157-6.492c1.342-1.462 3.24-2.267 5.34-2.267h.056a52.5 52.5 0 0 1-2.381-15.683c0-29.006 23.515-52.523 52.524-52.523c29.01 0 52.525 23.514 52.525 52.523a52.5 52.5 0 0 1-2.399 15.723q.38-.038.747-.038c2.1 0 3.998.805 5.34 2.267c1.723 1.878 2.49 4.184 2.156 6.492a7.9 7.9 0 0 1-1.074 2.997c1.157.937 2.01 2.24 2.421 3.808a7.96 7.96 0 0 1-1.073 6.427q.166.257.308.533z" /><ns0:path xmlns:ns0="http://www.w3.org/2000/svg" fill="#ffa502" d="M63.364 8.65c-29.008 0-52.525 23.513-52.525 52.522a52.5 52.5 0 0 0 2.382 15.683h-.056c-2.1 0-3.998.804-5.34 2.266c-1.723 1.878-2.49 4.186-2.157 6.493a7.9 7.9 0 0 0 1.075 2.997c-1.157.936-2.01 2.24-2.422 3.808a7.96 7.96 0 0 0 1.075 6.429q-.165.258-.31.534c-1.037 1.97-1.104 4.198-.188 6.272c1.39 3.142 4.843 5.619 11.547 8.277a88 88 0 0 0 8.018 2.719c5.514 1.43 10.502 2.157 14.819 2.157c7.089 0 12.377-1.94 15.755-5.77c5.715.906 11.54.872 17.245-.1c3.373 3.896 8.692 5.87 15.84 5.87c4.317 0 9.305-.727 14.818-2.157a88 88 0 0 0 8.02-2.72c6.704-2.657 10.157-5.134 11.546-8.276c.916-2.074.85-4.302-.19-6.272a6 6 0 0 0-.309-.534a7.96 7.96 0 0 0 1.074-6.428c-.412-1.568-1.265-2.871-2.421-3.808a7.9 7.9 0 0 0 1.074-2.997c.334-2.308-.433-4.613-2.157-6.493c-1.341-1.462-3.24-2.266-5.34-2.266a8 8 0 0 0-.746.038a52.5 52.5 0 0 0 2.395-15.722c0-29.006-23.516-52.522-52.522-52.522m.007 5.422c26.013 0 47.1 21.088 47.1 47.1v.608q0 .152-.004.304q-.002.125-.007.252q0 .113-.005.222c0 .095-.006.19-.01.286v.007l-.013.33l-.013.289l-.002.07l-.017.306q-.056.99-.15 1.98v.007l-.033.326l-.028.254l-.055.5l-.031.253l-.04.297l-.045.326q-.025.18-.053.361l-.042.286l-.051.323q-.026.16-.056.321l-.056.322a37 37 0 0 1-.31 1.596l-.067.315l-.07.315c-1.326-1.288-3.083-1.99-5.019-1.99c-1.757 0-3.563.581-5.37 1.728c-1.2.762-2.526 2.112-3.891 3.809c-1.265-1.754-3.035-2.92-5.058-3.239a7.5 7.5 0 0 0-1.168-.092c-4.623 0-7.404 4.012-8.456 7.62c-.522 1.218-3.028 6.768-6.795 10.533c-5.736 5.717-7.182 11.608-4.387 17.918l-.264.032l-.453.052q-.357.038-.716.07l-.233.02l-.214.019l-.301.024l-.334.025l-.334.022l-.074.005l-.262.014l-.11.006l-.311.016l-.362.016l-.328.01l-.218.007h-.112l-.204.004h-.108q-.102-.001-.205.004l-.278.004h-.388q-.459 0-.913-.01l-.247-.005q-.105-.001-.208-.006l-.261-.007l-.325-.013l-.292-.013l-.075-.002l-.278-.014l-.231-.015l-.18-.01a53 53 0 0 1-.677-.047l-.235-.02l-.298-.025l-.35-.033a38 38 0 0 1-.582-.058h-.01c2.84-6.336 1.404-12.255-4.336-17.99c-3.764-3.759-6.268-9.31-6.787-10.528c-1.052-3.608-3.835-7.619-8.457-7.619q-.587 0-1.167.093c-2.025.318-3.795 1.483-5.058 3.237c-1.365-1.697-2.69-3.046-3.89-3.808c-1.809-1.147-3.613-1.728-5.372-1.728c-2.194 0-4.155.9-5.523 2.535l-.035.042l-.076-.323l-.004-.015a46 46 0 0 1-.654-3.363q.001-.012-.004-.022a37 37 0 0 1-.147-1.015q-.024-.172-.046-.345l-.041-.345l-.038-.328l-.004-.028a49 49 0 0 1-.13-1.343l-.014-.172l-.022-.294q-.01-.12-.017-.242q-.001-.028-.004-.055a33 33 0 0 1-.057-1.03l-.013-.308l-.002-.092l-.01-.284l-.006-.242c0-.096-.006-.194-.008-.29c-.001-.096-.004-.202-.004-.303c-.002-.102 0-.203-.003-.304q-.002-.152 0-.305c0-26.01 21.087-47.1 47.101-47.1zm31.9 31.85a4.4 4.4 0 0 0-3.718 1.958a4.41 4.41 0 0 0 .546 5.563c.409.41.896.733 1.431.955a4.4 4.4 0 0 0 5.756-2.383a4.4 4.4 0 0 0-.955-4.801a4.4 4.4 0 0 0-3.06-1.292m-62.867.005a4.406 4.406 0 1 0 2.231 8.064a4.406 4.406 0 0 0-2.23-8.064zm-9.28 29.136c.69 0 1.534.294 2.466.885c2.89 1.834 8.47 11.422 10.513 15.153c.685 1.25 1.854 1.778 2.907 1.778c2.09 0 3.724-2.078.192-4.718c-5.31-3.973-3.447-10.466-.913-10.865q.163-.026.327-.026c2.304 0 3.32 3.97 3.32 3.97s2.979 7.482 8.097 12.597c4.644 4.642 5.293 8.45 2.587 13.202a21 21 0 0 1-.934 1.488c-.873 1.278-2.022 2.255-3.355 2.981c-2.548 1.39-5.773 1.875-9.05 1.875c-5.175 0-10.482-1.21-13.456-1.982c-.146-.038-18.23-5.147-15.941-9.495c.385-.731 1.02-1.023 1.818-1.023c3.224 0 9.093 4.8 11.615 4.8c.564 0 .962-.24 1.124-.824c1.076-3.856-16.34-5.478-14.874-11.061c.258-.988.961-1.39 1.948-1.39c4.262 0 13.828 7.496 15.829 7.496q.231 0 .323-.14l.025-.043c.94-1.55.4-2.678-6.033-6.619l-.618-.375c-7.079-4.284-12.047-6.864-9.221-9.94c.325-.355.786-.512 1.346-.512c.664 0 1.467.222 2.352.595c3.74 1.576 8.92 5.876 11.085 7.751q.511.444 1.015.896s2.74 2.85 4.398 2.85c.381 0 .705-.15.925-.522c1.175-1.981-10.916-11.142-11.597-14.923c-.463-2.561.325-3.859 1.78-3.859m81.016.01c.576-.032 1.056.127 1.406.477c.424.424.659 1.128.646 2.106q.001.064-.004.131v.048q-.001.066-.007.134c0 .056-.007.112-.012.168l-.015.147a.2.2 0 0 1-.005.043l-.016.131q.001.02-.005.04l-.025.176a3 3 0 0 1-.026.163l-.015.092a3 3 0 0 1-.063.261a4 4 0 0 1-.176.471q-.145.316-.32.615a14 14 0 0 1-.422.664q-.295.42-.612.825l-.097.123q-.52.646-1.07 1.264l-.117.13q-.235.262-.478.527l-.123.134l-.248.267l-.252.27l-.256.269l-.259.27l-.26.27l-.529.546c-2.52 2.585-5.175 5.16-6.074 6.766a3 3 0 0 0-.163.323c-.128.292-.182.542-.145.744q.018.1.069.188a1 1 0 0 0 .288.33c.185.132.408.2.636.193h.07l.073-.006l.073-.007l.06-.009l.025-.006l.056-.01l.014-.003l.06-.014l.023-.005q.032-.007.065-.017c.022-.006.052-.014.078-.023a3 3 0 0 0 .32-.117q.084-.034.163-.073l.083-.04l.083-.04q.3-.156.582-.337l.082-.055q.042-.026.083-.055l.082-.056l.044-.03l.12-.084c.112-.076.215-.155.32-.235l.01-.008l.167-.13c.228-.18.444-.362.64-.533l.13-.114l.013-.01l.068-.061c.16-.145.303-.278.422-.389l.049-.048l.117-.11l.07-.069l.025-.024l.007-.007l.072-.073l.046-.048l.006-.005l.022-.019l.027-.025l.01-.009l.023-.02l.126-.112l.07-.063l.112-.101l.085-.075l.046-.04l.089-.077l.13-.115l.07-.06c.27-.236.598-.52.976-.84l.155-.13l.255-.216l.262-.217q.514-.428 1.099-.898l.256-.205l.666-.528q.138-.108.278-.214a63 63 0 0 1 2.338-1.733l.24-.167q.25-.173.5-.342l.151-.102q.447-.303.905-.591l.15-.096l.15-.092q.225-.14.448-.274l.149-.09l.297-.171l.291-.168l.058-.033l.231-.126q.144-.078.288-.152l.143-.073l.138-.07l.144-.07a13 13 0 0 1 1.215-.525l.255-.09q.114-.038.222-.071l.024-.007q.058-.02.115-.034l.011-.003a5 5 0 0 1 .237-.062h.005a5 5 0 0 1 .67-.114a3 3 0 0 1 .312-.014h.052q.104 0 .203.01c.03 0 .061.007.09.01h.013a2 2 0 0 1 .177.033h.01a1.6 1.6 0 0 1 .532.225q.101.065.19.148l.016.016l.032.03l.03.034c.25.261.457.562.612.89l.024.055a2.06 2.06 0 0 1 .026 1.587a3 3 0 0 1-.21.444a5 5 0 0 1-.684.902l-.055.06a9 9 0 0 1-.259.26q-.06.06-.123.117l-.127.118l-.067.06a14 14 0 0 1-.799.657q-.546.416-1.113.805a62 62 0 0 1-2.422 1.557c-1.222.752-2.577 1.556-4.022 2.43l-.374.227q-.615.375-1.16.716l-.184.116l-.347.222q-.345.221-.688.444l-.185.123q-.135.087-.269.177l-.087.056l-.269.18l-.143.098l-.166.116l-.154.107q-.39.275-.723.525l-.083.063q-.196.148-.388.302q-.288.232-.524.445l-.078.07q-.066.06-.128.121l-.085.083l-.04.04q-.135.133-.26.274l-.041.047a4 4 0 0 0-.24.306l-.032.044a3 3 0 0 0-.184.31l-.03.062l-.02.047l-.013.031l-.01.028l-.015.038a1.6 1.6 0 0 0-.08.325l-.005.039l-.005.035v.197q-.001.022.005.048l.003.03q.001.025.007.05l.01.068v.003l.015.065l.018.068q.019.067.043.133l.029.076l.007.016l.022.05l.032.069q.05.106.109.209l.041.07l.043.072l.025.034l.013.013l.016.015l.016.012a.3.3 0 0 0 .077.04q.02.007.043.012c.359.08 1.096-.216 2.076-.733l.175-.094l.298-.162l.146-.08c.104-.056.209-.119.317-.18l.198-.112c1.294-.745 2.84-1.702 4.439-2.636q.225-.133.45-.262l.302-.193q.526-.302 1.056-.595a50 50 0 0 1 1.348-.715l.296-.15q.294-.145.583-.284a25 25 0 0 1 1.127-.502l.209-.085l.024-.01c1.103-.437 2.104-.706 2.914-.706q.263-.003.521.042h.005q.083.016.158.034h.01q.199.051.383.144q.257.133.454.347q.09.099.159.213q.131.202.205.43q.029.088.054.178c.132.47.12.97-.036 1.433l-.02.056a3 3 0 0 1-.314.618a4 4 0 0 1-.34.441c-.03.033-.057.065-.09.096q-.066.073-.137.142c-.836.83-2.11 1.556-3.553 2.223l-.496.222l-.168.074q-.164.075-.338.146a16 16 0 0 1-.343.144l-.347.143c-.81.334-1.641.651-2.452.965l-.347.135l-.342.135q-.343.133-.675.267l-.33.132l-.324.132l-.16.068l-.314.133c-2.384 1.023-4.1 2.063-3.74 3.355q.016.055.034.105q.049.144.131.272a1 1 0 0 0 .112.141c.424.44 1.195.372 2.168.022q.206-.075.408-.158l.084-.034c.222-.094.458-.2.699-.314q.09-.042.182-.089c1.19-.582 2.537-1.364 3.875-2.077a35 35 0 0 1 1.627-.824c1.267-.596 2.458-1.018 3.415-1.018c.45 0 .846.092 1.176.303l.055.037a1.8 1.8 0 0 1 .586.682c.473.898.077 1.828-.85 2.74c-.889.875-2.272 1.734-3.844 2.528q-.175.089-.353.176c-4.68 2.298-10.808 4.029-10.893 4.05a70 70 0 0 1-6.6 1.395l-.39.06l-.064.01a41 41 0 0 1-1.794.237l-.056.007a43 43 0 0 1-3.33.252h-.016q-.604.02-1.207.02h-.465a29 29 0 0 1-1.839-.082q-.022.001-.044-.004a25 25 0 0 1-1.78-.21l-.45-.075l-.205-.039l-.015-.004a16 16 0 0 1-.644-.136q-.187-.04-.371-.088l-.074-.019l-.18-.047l-.033-.009l-.191-.056l-.21-.062l-.023-.006l-.181-.056l-.204-.065l-.168-.056l-.121-.042a13 13 0 0 1-.352-.129l-.11-.044l-.093-.036q-.263-.106-.524-.222l-.116-.056l-.019-.01l-.123-.055l-.237-.119l-.025-.012l-.114-.06a10 10 0 0 1-.597-.34l-.108-.065l-.16-.102l-.138-.092l-.15-.103l-.089-.064a7 7 0 0 1-.278-.208l-.145-.112l-.171-.14a4 4 0 0 1-.141-.122l-.004-.004a8 8 0 0 1-.292-.268l-.007-.005l-.145-.145q-.073-.072-.145-.146l-.14-.15l-.132-.149l-.014-.017a8 8 0 0 1-.382-.475a11 11 0 0 1-.247-.342l-.076-.114q-.154-.224-.298-.453q-.109-.165-.211-.332l-.129-.212l-.017-.028a15 15 0 0 1-.182-.314c-.02-.038-.045-.077-.067-.116l-.035-.062l-.022-.04l-.122-.226l-.056-.1l-.055-.107l-.056-.106q-.21-.42-.396-.85l-.044-.106l-.084-.208q-.022-.05-.04-.1a10.4 10.4 0 0 1-.482-1.64l-.02-.102a7 7 0 0 1-.078-.501l-.012-.098l-.011-.101a7 7 0 0 1-.03-.397l-.005-.098l-.005-.198c-.035-2.656 1.31-5.209 4.182-8.08c5.118-5.114 8.097-12.596 8.097-12.596s.08-.314.247-.766q.034-.094.075-.195q.145-.38.327-.744l.025-.046q.154-.31.337-.604q.042-.067.089-.136a6 6 0 0 1 .289-.394q.084-.105.176-.204q.035-.04.072-.077c.297-.306.635-.556 1.019-.689l.048-.016l.099-.03q.056-.015.114-.027l.018-.004q.12-.024.245-.032h.007l.132-.004a3 3 0 0 1 .328.026c.46.073.9.348 1.277.772q.216.242.385.52q.113.178.213.378c.026.055.051.105.076.16q.097.21.174.43q.181.513.273 1.051a7 7 0 0 1 .093 1.464a7.4 7.4 0 0 1-.489 2.357q-.04.104-.084.208a7 7 0 0 1-.347.722q-.057.103-.116.205q-.15.255-.324.508l-.07.1q-.413.576-.915 1.075a9.6 9.6 0 0 1-1.056.912a8.6 8.6 0 0 0-1.05.918c-.934.98-1.152 1.846-.942 2.502q.051.155.131.297q.095.162.222.299l.033.034l.034.033q.051.048.107.095l.038.03q.135.105.285.187l.088.046a2.5 2.5 0 0 0 .43.165l.04.01l.056.015l.049.011l.052.011l.05.011l.05.009q.054.01.111.016l.035.005l.065.007l.04.005l.065.005h.038l.069.003h.215l.06-.003l.072-.005l.086-.009l.082-.008c.018 0 .037-.007.056-.01a3 3 0 0 0 .724-.195l.1-.043a3 3 0 0 0 .48-.261a3.3 3.3 0 0 0 .488-.396q.023-.02.043-.04l.082-.087q.3-.33.513-.719a142 142 0 0 1 3.822-6.534l.183-.292l.185-.294q.138-.222.278-.44l.093-.145q.464-.728.943-1.445l.191-.283c.38-.563.759-1.111 1.135-1.632l.187-.259q.614-.845 1.277-1.653l.175-.21c.029-.035.055-.07.087-.103l.172-.2q.042-.049.087-.098l.166-.188l.084-.09q.125-.135.246-.26l.16-.163a6.5 6.5 0 0 1 1.038-.862l.088-.056a3 3 0 0 1 .257-.155c.735-.417 1.406-.64 1.981-.673z" /><ns0:path xmlns:ns0="http://www.w3.org/2000/svg" fill="#ffd21e" fill-rule="evenodd" d="M110.464 61.476v-.305c0-26.012-21.08-47.098-47.094-47.098c-26.013 0-47.1 21.088-47.1 47.098v.102a4 4 0 0 0 0 .203q.005.153.003.304l.003.224l.002.08q0 .056.002.111l.003.178l.007.242l.01.284l.003.093l.012.294v.014l.017.344v.009l.02.352l.021.324l.001.02l.019.278l.002.025l.02.268l.002.017l.013.155q.055.672.13 1.343l.003.028l.038.329l.042.345l.03.234l.015.11q.05.381.108.759l.002.017l.037.238q.266 1.706.659 3.388l.003.013l.02.084l.056.24l.035-.042c1.367-1.635 3.329-2.536 5.523-2.536c1.759 0 3.563.582 5.372 1.728c1.2.762 2.526 2.112 3.89 3.809c1.263-1.754 3.033-2.92 5.058-3.238q.58-.09 1.167-.092c4.622 0 7.405 4.01 8.457 7.618c.52 1.219 3.023 6.77 6.8 10.525c5.74 5.735 7.176 11.652 4.335 17.988h.01q.29.033.583.06l.35.032l.04.004l.257.022l.236.018q.337.027.677.048l.18.01l.142.01l.088.005l.278.014l.076.003l.291.013l.325.013l.26.007h.043q.084.005.166.005l.06.002q.55.014 1.1.012h.388l.278-.003q.102-.004.205-.003h.109l.093-.002l.111-.002h.111l.218-.006l.329-.011l.36-.016l.311-.015l.112-.007l.165-.009l.097-.006l.073-.005l.334-.021l.333-.025l.303-.024l.212-.018l.234-.02q.585-.054 1.168-.123l.266-.032c-2.796-6.31-1.349-12.201 4.367-17.913c3.768-3.765 6.272-9.316 6.794-10.535c1.052-3.607 3.834-7.618 8.457-7.618q.587 0 1.168.092c2.022.318 3.793 1.484 5.057 3.238c1.366-1.697 2.691-3.047 3.891-3.809c1.808-1.146 3.614-1.728 5.371-1.728c1.937 0 3.692.703 5.018 1.99l.07-.315l.068-.314l.072-.345a61 61 0 0 0 .238-1.252l.02-.116l.036-.205q.03-.16.056-.322l.007-.041l.044-.282l.043-.285v-.002q.048-.316.09-.633l.007-.052l.039-.297l.032-.253l.055-.5l.022-.2l.006-.055l.033-.325v-.009l.024-.258a51 51 0 0 0 .126-1.72v-.004l.017-.305l.004-.068q.015-.31.025-.619v-.008l.003-.08q.005-.102.006-.205l.001-.027q.004-.097.005-.195l.002-.056l.004-.195l.001-.056l.004-.248zm-58.776 47.051c3.73-5.47 3.466-9.575-1.652-14.69C44.918 88.72 41.94 81.24 41.94 81.24s-1.112-4.345-3.648-3.946c-2.535.4-4.395 6.892.914 10.866c5.309 3.975-1.056 6.67-3.1 2.94s-7.623-13.318-10.515-15.152s-4.927-.806-4.245 2.974c.339 1.876 3.489 5.079 6.431 8.07c2.986 3.036 5.759 5.855 5.166 6.852c-1.177 1.981-5.32-2.327-5.32-2.327s-12.975-11.807-15.799-8.73c-2.604 2.836 1.412 5.247 7.6 8.962l1.622.977c7.08 4.286 7.63 5.417 6.625 7.038c-.37.6-2.74-.823-5.655-2.573c-4.97-2.984-11.521-6.917-12.446-3.396c-.8 3.047 4.02 4.914 8.391 6.607c3.642 1.411 6.973 2.701 6.483 4.453c-.508 1.816-3.26.301-6.27-1.354c-3.377-1.86-7.078-3.895-8.29-1.598c-2.288 4.345 15.793 9.459 15.942 9.497c5.842 1.515 20.678 4.726 25.863-2.874zm24.03 0c-3.73-5.47-3.465-9.575 1.653-14.69s8.097-12.596 8.097-12.596s1.111-4.345 3.647-3.946c2.536.4 4.396 6.892-.913 10.866c-5.31 3.975 1.056 6.67 3.1 2.94s7.619-13.318 10.511-15.152c2.893-1.834 4.928-.806 4.246 2.974c-.338 1.876-3.489 5.079-6.431 8.071c-2.986 3.036-5.758 5.854-5.166 6.851c1.176 1.981 5.323-2.33 5.323-2.33s12.974-11.806 15.799-8.729c2.603 2.835-1.412 5.247-7.6 8.963q-.812.487-1.622.977c-7.08 4.285-7.63 5.416-6.626 7.037c.371.6 2.741-.824 5.655-2.573c4.97-2.983 11.522-6.917 12.447-3.396c.801 3.047-4.02 4.914-8.391 6.608c-3.642 1.41-6.974 2.7-6.484 4.452c.507 1.815 3.26.3 6.267-1.355c3.378-1.859 7.08-3.896 8.29-1.596c2.29 4.346-15.794 9.456-15.94 9.493c-5.842 1.52-20.679 4.73-25.862-2.869" clip-rule="evenodd" /><ns0:path xmlns:ns0="http://www.w3.org/2000/svg" fill="#32343d" fill-rule="evenodd" d="M78.667 48.352c.734.26 1.28 1.05 1.8 1.803c.702 1.016 1.356 1.963 2.36 1.43a6.775 6.775 0 0 0 3.564-6.633a6.77 6.77 0 0 0-5.737-6.053a6.777 6.777 0 0 0-6.994 9.883c.465.875 1.497.462 2.586.027c.853-.342 1.743-.697 2.42-.457zm-31.93 0c-.734.26-1.28 1.05-1.8 1.803c-.702 1.017-1.357 1.963-2.36 1.43a6.776 6.776 0 0 1 5.136-12.472a6.78 6.78 0 0 1 4.031 9.67c-.465.874-1.497.461-2.586.026c-.854-.342-1.742-.697-2.42-.457zm26.99 29.055c5.06-3.987 6.92-10.496 6.92-14.506c0-3.17-2.133-2.172-5.547-.482l-.192.095c-3.134 1.552-7.305 3.619-11.884 3.619s-8.752-2.067-11.884-3.62c-3.525-1.745-5.736-2.84-5.736.388c0 4.137 1.978 10.93 7.406 14.875a11.8 11.8 0 0 1 7.194-6.082c.542-.161 1.1.772 1.671 1.727c.551.92 1.115 1.863 1.688 1.863c.61 0 1.21-.928 1.797-1.835c.612-.947 1.21-1.87 1.787-1.686a11.8 11.8 0 0 1 6.78 5.644" clip-rule="evenodd" /><ns0:path xmlns:ns0="http://www.w3.org/2000/svg" fill="#ff323d" d="M73.726 77.406c-2.636 2.077-6.14 3.47-10.702 3.47c-4.286 0-7.638-1.23-10.214-3.1a11.78 11.78 0 0 1 7.194-6.082c1.064-.318 2.192 3.59 3.359 3.59c1.25 0 2.453-3.882 3.584-3.521a11.8 11.8 0 0 1 6.779 5.643" />
  </g>
</svg>