<svg xmlns="http://www.w3.org/2000/svg"
     width="64" height="64"
     viewBox="0 0 64 64">
<defs>
  <linearGradient id="bgGradient" x1="0%" y1="0%" x2="100%" y2="0%">
    <stop offset="0%" stop-color="deeppink" stop-opacity="1" />
    <stop offset="100%" stop-color="mediumslateblue" stop-opacity="1" />
  </linearGradient>
</defs>
  <rect x="0" y="0"
        width="64" height="64"
        rx="8" ry="8"
        fill="url(#bgGradient)" />
  <g transform="
      translate(32.0,32.0)
      scale(1.8666666666666665)
      translate(-12.0,-12.0)
  ">
<ns0:path xmlns:ns0="http://www.w3.org/2000/svg" fill="white" d="M15.607 4.653H8.941L6.645 19.251H1.82L4.862 0h7.995c3.754 0 6.375 2.294 6.473 5.513c-.648-.478-2.105-.86-3.722-.86m6.57 5.546c0 3.41-3.01 6.853-6.958 6.853h-2.493L11.595 24H6.74l1.845-11.538h3.592c4.208 0 7.346-3.634 7.153-6.949a5.24 5.24 0 0 1 2.848 4.686M9.653 5.546h6.408c.907 0 1.942.222 2.363.541c-.195 2.741-2.655 5.483-6.441 5.483H8.714Z" />
  </g>
</svg>