<svg xmlns="http://www.w3.org/2000/svg" width="64" height="64" viewBox="0 0 64 64">

  <rect x="0" y="0" width="64" height="64" rx="8" ry="8" fill="navy" />
  <g transform="translate(32.0,32.0) scale(0.0875) translate(-256.0,-256.0)">
<ns0:defs xmlns:ns0="http://www.w3.org/2000/svg"><ns0:linearGradient id="SVGPqbGhekF" x1="187.9" x2="324.1" y1="138.1" y2="373.9" gradientUnits="userSpaceOnUse"><ns0:stop offset="0" stop-color="#fcd966" /><ns0:stop offset=".5" stop-color="#fcd966" /><ns0:stop offset="1" stop-color="#fccd34" /></ns0:linearGradient></ns0:defs><ns0:path xmlns:ns0="http://www.w3.org/2000/svg" fill="url(#SVGPqbGhekF)" stroke="#fcd34d" stroke-linecap="round" stroke-linejoin="round" stroke-width="4" d="m105.7 263.5l107.5 29.9a7.9 7.9 0 0 1 5.4 5.4l29.9 107.5a7.8 7.8 0 0 0 15 0l29.9-107.5a7.9 7.9 0 0 1 5.4-5.4l107.5-29.9a7.8 7.8 0 0 0 0-15l-107.5-29.9a7.9 7.9 0 0 1-5.4-5.4l-29.9-107.5a7.8 7.8 0 0 0-15 0l-29.9 107.5a7.9 7.9 0 0 1-5.4 5.4l-107.5 29.9a7.8 7.8 0 0 0 0 15Z"><ns0:animateTransform additive="sum" attributeName="transform" calcMode="spline" dur="6s" keySplines=".42, 0, .58, 1; .42, 0, .58, 1" repeatCount="indefinite" type="rotate" values="-15 256 256; 15 256 256; -15 256 256" /><ns0:animate attributeName="opacity" dur="6s" values="1; .75; 1; .75; 1; .75; 1" /></ns0:path>
  </g>
</svg>