<svg xmlns="http://www.w3.org/2000/svg"
     width="256" height="256"
     viewBox="0 0 256 256">
<defs>
  <linearGradient id="bgGradient" x1="0%" y1="0%" x2="100%" y2="0%">
    <stop offset="0%" stop-color="deeppink" stop-opacity="1" />
    <stop offset="100%" stop-color="deepskyblue" stop-opacity="1" />
  </linearGradient>
</defs>
  <rect x="0" y="0"
        width="256" height="256"
        rx="48" ry="48"
        fill="url(#bgGradient)" />
  <g transform="
      translate(128.0,128.0)
      scale(11.2)
      translate(-8.0,-8.0)
  ">
<g xmlns="http://www.w3.org/2000/svg"><path fill="white" d="M9 8a1 1 0 1 1-2 0a1 1 0 0 1 2 0m3.8 2.7a.47.47 0 0 0 .664-.196c.359-.77.56-1.63.56-2.53c0-.906-.201-1.76-.56-2.53a.47.47 0 0 0-.664-.195l-1.74.993c-.24.137-.319.442-.223.701a3.03 3.03 0 0 1 0 2.08c-.095.259-.017.564.223.701l1.74.993zM2 8c0 .906.201 1.76.56 2.53a.47.47 0 0 0 .664.196l1.74-.993c.24-.137.319-.442.223-.701a3 3 0 0 1 0-2.08c.095-.259.017-.564-.223-.701l-1.74-.993a.47.47 0 0 0-.664.196c-.359.77-.56 1.63-.56 2.53z" /><path fill="white" fill-rule="evenodd" d="M16 8c0 4.42-3.58 8-8 8s-8-3.58-8-8s3.58-8 8-8s8 3.58 8 8m-1 0c0 3.87-3.13 7-7 7s-7-3.13-7-7s3.13-7 7-7s7 3.13 7 7" clip-rule="evenodd" /><animateTransform attributeName="transform" attributeType="XML" type="rotate" from="0 8.0 8.0" to="360 8.0 8.0" dur="4s" repeatCount="indefinite" calcMode="linear" /></g>
  </g>
</svg>