<svg xmlns="http://www.w3.org/2000/svg" width="24" height="24" viewBox="0 0 24 24">
<defs>
  <linearGradient id="bgGradient" x1="0%" y1="0%" x2="100%" y2="0%">
    <stop offset="0%" stop-color="gold" stop-opacity="1" />
    <stop offset="100%" stop-color="royalblue" stop-opacity="1" />
  </linearGradient>
</defs>
  <rect x="0" y="0" width="24" height="24" rx="12" ry="12" fill="url(#bgGradient)" />
  <g transform="translate(12.0,12.0) scale(0.7) translate(-12.0,-12.0)">
<ns0:path xmlns:ns0="http://www.w3.org/2000/svg" fill="white" d="M2 6c0-1.505.78-3.08 2-4c0 .845.69 2 2 2a3 3 0 0 1 3 3c0 .386-.079.752-.212 1.091a75 75 0 0 1 2.191 1.808l-2.08 2.08a76 76 0 0 1-1.808-2.191A3 3 0 0 1 6 10c-2.21 0-4-1.79-4-4m12.152 6.848l1.341-1.341A4.45 4.45 0 0 0 17.5 12A4.5 4.5 0 0 0 22 7.5c0-.725-.188-1.401-.493-2.007L18 9l-2-2l3.507-3.507A4.45 4.45 0 0 0 17.5 3A4.5 4.5 0 0 0 13 7.5c0 .725.188 1.401.493 2.007L3 20l2 2l6.848-6.848a69 69 0 0 0 5.977 5.449l1.425 1.149l1.5-1.5l-1.149-1.425a69 69 0 0 0-5.449-5.977" />
  </g>
</svg>