<svg xmlns="http://www.w3.org/2000/svg" width="24" height="24" viewBox="0 0 24 24">

  <rect x="0" y="0" width="24" height="24" rx="12" ry="12" fill="navy" />
  <g transform="translate(12.0,12.0) scale(0.7) translate(-12.0,-12.0)">
<ns0:path xmlns:ns0="http://www.w3.org/2000/svg" fill="none" stroke="white" stroke-linecap="round" stroke-linejoin="round" stroke-width="2" d="M17 16v2a2 2 0 0 1-2 2H5a2 2 0 0 1-2-2v-7a2 2 0 0 1 2-2h2m3-4H9a2 2 0 0 0-2 2v7a2 2 0 0 0 2 2h10a2 2 0 0 0 2-2V7a2 2 0 0 0-2-2h-1m-1 4l-3 3m0 0l-3-3m3 3V3" />
  </g>
</svg>