<svg xmlns="http://www.w3.org/2000/svg" width="24" height="24" viewBox="0 0 24 24">

  <rect x="0" y="0" width="24" height="24" rx="12" ry="12" fill="navy" />
  <g transform="translate(12.0,12.0) scale(0.7) translate(-12.0,-12.0)">
<ns0:path xmlns:ns0="http://www.w3.org/2000/svg" fill="white" d="M18 4.25H6A2.75 2.75 0 0 0 3.25 7v10A2.75 2.75 0 0 0 6 19.75h12A2.75 2.75 0 0 0 20.75 17V7A2.75 2.75 0 0 0 18 4.25M6 5.75h12A1.25 1.25 0 0 1 19.25 7v8.19l-2.72-2.72a.7.7 0 0 0-.56-.22a.8.8 0 0 0-.55.27l-1.29 1.55l-4.6-4.6A.7.7 0 0 0 9 9.25a.8.8 0 0 0-.55.27l-3.7 4.41V7A1.25 1.25 0 0 1 6 5.75M4.75 17v-.73l4.3-5.16l4.12 4.12l-2.52 3H6A1.25 1.25 0 0 1 4.75 17M18 18.25h-5.4l3.45-4.14l3.15 3.15a1.23 1.23 0 0 1-1.2.99" />
  </g>
</svg>