<svg xmlns="http://www.w3.org/2000/svg" width="24" height="24" viewBox="0 0 24 24">
<defs>
  <linearGradient id="bgGradient" x1="0%" y1="0%" x2="100%" y2="0%">
    <stop offset="0%" stop-color="gold" stop-opacity="1" />
    <stop offset="100%" stop-color="royalblue" stop-opacity="1" />
  </linearGradient>
</defs>
  <rect x="0" y="0" width="24" height="24" rx="12" ry="12" fill="url(#bgGradient)" />
  <g transform="translate(12.0,12.0) scale(0.5249999999999999) translate(-16.0,-16.0)">
<ns0:path xmlns:ns0="http://www.w3.org/2000/svg" fill="white" d="M26 4H6a2 2 0 0 0-2 2v20a2 2 0 0 0 2 2h20a2 2 0 0 0 2-2V6a2 2 0 0 0-2-2m-4 22v-4h-4v4h-4v-4h-4v-4h4v-4h-4v-4h4V6h4v4h4V6h4v20Z" /><ns0:path xmlns:ns0="http://www.w3.org/2000/svg" fill="white" d="M14 10h4v4h-4zm0 8h4v4h-4zm4-4h4v4h-4z" />
  </g>
</svg>