<svg xmlns="http://www.w3.org/2000/svg" xmlns:xlink="http://www.w3.org/1999/xlink" width="1090" height="515.91"><rect width="1090" height="515.91" rx="5" ry="5" class="a"/><svg y="0%" x="0%"><circle cx="20" cy="20" r="6" fill="#ff5f58"/><circle cx="40" cy="20" r="6" fill="#ffbd2e"/><circle cx="60" cy="20" r="6" fill="#18c132"/></svg><svg height="455.91" viewBox="0 0 105 45.591" width="1050" x="15" xmlns="http://www.w3.org/2000/svg" xmlns:xlink="http://www.w3.org/1999/xlink" y="50"><style>@keyframes i{0%{transform:translateX(0)}2.4%{transform:translateX(-210px)}45.35%{transform:translateX(-315px)}45.67%{transform:translateX(-420px)}45.92%{transform:translateX(-525px)}46.05%{transform:translateX(-630px)}47.16%{transform:translateX(-735px)}47.58%{transform:translateX(-840px)}47.75%{transform:translateX(-945px)}47.92%{transform:translateX(-1050px)}48.43%{transform:translateX(-1155px)}48.73%{transform:translateX(-1260px)}49.03%{transform:translateX(-1365px)}50.39%{transform:translateX(-1470px)}50.87%{transform:translateX(-1575px)}50.99%{transform:translateX(-1680px)}51.22%{transform:translateX(-1785px)}52.56%{transform:translateX(-1890px)}52.81%{transform:translateX(-1995px)}53.11%{transform:translateX(-2100px)}53.39%{transform:translateX(-2205px)}53.56%{transform:translateX(-2310px)}54.12%{transform:translateX(-2415px)}54.52%{transform:translateX(-2520px)}54.75%{transform:translateX(-2625px)}55.02%{transform:translateX(-2730px)}55.23%{transform:translateX(-2835px)}55.32%{transform:translateX(-2940px)}55.67%{transform:translateX(-3045px)}56.54%{transform:translateX(-3150px)}57.01%{transform:translateX(-3255px)}57.42%{transform:translateX(-3360px)}57.57%{transform:translateX(-3465px)}57.72%{transform:translateX(-3570px)}57.94%{transform:translateX(-3675px)}58.51%{transform:translateX(-3780px)}59.12%{transform:translateX(-3885px)}59.42%{transform:translateX(-3990px)}59.7%{transform:translateX(-4095px)}60%{transform:translateX(-4200px)}60.7%{transform:translateX(-4305px)}61.03%{transform:translateX(-4410px)}61.73%{transform:translateX(-4515px)}62.21%{transform:translateX(-4620px)}62.54%{transform:translateX(-4725px)}63.06%{transform:translateX(-4830px)}63.3%{transform:translateX(-4935px)}63.82%{transform:translateX(-5040px)}64.17%{transform:translateX(-5145px)}64.35%{transform:translateX(-5250px)}64.56%{transform:translateX(-5355px)}65.53%{transform:translateX(-5460px)}65.93%{transform:translateX(-5565px)}66.02%{transform:translateX(-5670px)}66.19%{transform:translateX(-5775px)}66.34%{transform:translateX(-5880px)}67.37%{transform:translateX(-5985px)}67.89%{transform:translateX(-6090px)}68.19%{transform:translateX(-6195px)}68.67%{transform:translateX(-6300px)}68.9%{transform:translateX(-6405px)}69.3%{transform:translateX(-6510px)}69.46%{transform:translateX(-6615px)}69.61%{transform:translateX(-6720px)}71.41%{transform:translateX(-6825px)}71.91%{transform:translateX(-6930px)}72.38%{transform:translateX(-7035px)}72.91%{transform:translateX(-7140px)}74.16%{transform:translateX(-7245px)}74.43%{transform:translateX(-7350px)}74.57%{transform:translateX(-7770px)}98.8%{transform:translateX(-7875px)}99.23%{transform:translateX(-7980px)}99.5%{transform:translateX(-8085px)}99.65%{transform:translateX(-8190px)}to{transform:translateX(-8295px)}}.a{fill:#282d35}.f{fill:#b9c0cb;white-space:pre}</style><g font-family="Monaco,Consolas,Menlo,'Bitstream Vera Sans Mono','Powerline Symbols',monospace" font-size="1.67"><defs><symbol id="1"><text y="1.67" class="f">yauheniya@MacBookPro</text><text x="21.042" y="1.67" class="f">icon-gen-ai</text><text x="33.066" y="1.67" class="f">%</text></symbol><symbol id="2"><text y="1.67" class="f">yauheniya@MacBookPro</text><text x="21.042" y="1.67" class="f">icon-gen-ai</text><text x="33.066" y="1.67" class="f">%</text><text x="35.07" y="1.67" class="f">icon-gen-ai</text></symbol><symbol id="3"><text y="1.67" class="f">yauheniya@MacBookPro</text><text x="21.042" y="1.67" class="f">icon-gen-ai</text><text x="33.066" y="1.67" class="f">%</text><text x="35.07" y="1.67" class="f">icon-gen-ai</text><text x="47.094" y="1.67" class="f">generate</text></symbol><symbol id="4"><text y="1.67" class="f">yauheniya@MacBookPro</text><text x="21.042" y="1.67" class="f">icon-gen-ai</text><text x="33.066" y="1.67" class="f">%</text><text x="35.07" y="1.67" class="f">icon-gen-ai</text><text x="47.094" y="1.67" class="f">generate</text><text x="56.112" y="1.67" class="f">simple-icons:openai</text></symbol><symbol id="5"><text y="1.67" class="f">yauheniya@MacBookPro</text><text x="21.042" y="1.67" class="f">icon-gen-ai</text><text x="33.066" y="1.67" class="f">%</text><text x="35.07" y="1.67" class="f">icon-gen-ai</text><text x="47.094" y="1.67" class="f">generate</text><text x="56.112" y="1.67" class="f">simple-icons:openai</text><text x="76.152" y="1.67" class="f">--color</text></symbol><symbol id="6"><text y="1.67" class="f">yauheniya@MacBookPro</text><text x="21.042" y="1.67" class="f">icon-gen-ai</text><text x="33.066" y="1.67" class="f">%</text><text x="35.07" y="1.67" class="f">icon-gen-ai</text><text x="47.094" y="1.67" class="f">generate</text><text x="56.112" y="1.67" class="f">simple-icons:openai</text><text x="76.152" y="1.67" class="f">--color</text><text x="84.168" y="1.67" class="f">white</text></symbol><symbol id="7"><text y="1.67" class="f">yauheniya@MacBookPro</text><text x="21.042" y="1.67" class="f">icon-gen-ai</text><text x="33.066" y="1.67" class="f">%</text><text x="35.07" y="1.67" class="f">icon-gen-ai</text><text x="47.094" y="1.67" class="f">generate</text><text x="56.112" y="1.67" class="f">simple-icons:openai</text><text x="76.152" y="1.67" class="f">--color</text><text x="84.168" y="1.67" class="f">white</text><text x="90.18" y="1.67" class="f">--size</text></symbol><symbol id="8"><text y="1.67" class="f">yauheniya@MacBookPro</text><text x="21.042" y="1.67" class="f">icon-gen-ai</text><text x="33.066" y="1.67" class="f">%</text><text x="35.07" y="1.67" class="f">icon-gen-ai</text><text x="47.094" y="1.67" class="f">generate</text><text x="56.112" y="1.67" class="f">simple-icons:openai</text><text x="76.152" y="1.67" class="f">--color</text><text x="84.168" y="1.67" class="f">white</text><text x="90.18" y="1.67" class="f">--size</text><text x="97.194" y="1.67" class="f">256</text></symbol><symbol id="9"><text y="1.67" class="f">Generating</text><text x="11.022" y="1.67" class="f">simple-icons:openai...</text></symbol><symbol id="10"><text x="2.004" y="1.67" class="f">Color:</text><text x="9.018" y="1.67" class="f">white</text></symbol><symbol id="11"><text x="2.004" y="1.67" class="f">Size:</text><text x="8.016" y="1.67" class="f">256px</text></symbol><symbol id="12"><text x="2.004" y="1.67" class="f">Background:</text><text x="14.028" y="1.67" class="f">transparent</text></symbol><symbol id="13"><text x="2.004" y="1.67" class="f">Border</text><text x="9.018" y="1.67" class="f">radius:</text><text x="17.034" y="1.67" class="f">0px</text></symbol><symbol id="14"><text y="1.67" class="f">✓</text><text x="2.004" y="1.67" class="f">Success!</text><text x="11.022" y="1.67" class="f">Saved</text><text x="17.034" y="1.67" class="f">to:</text><text x="21.042" y="1.67" class="f">output/simple-icons_openai.svg</text></symbol><symbol id="15"><text y="1.67" class="f">yauheniya@MacBookPro</text><text x="21.042" y="1.67" class="f">icon-gen-ai</text><text x="33.066" y="1.67" class="f">%</text><text x="35.07" y="1.67" class="f">exit</text></symbol><symbol id="a"><path fill="transparent" d="M0 0h105v21H0z"/></symbol><symbol id="b"><path fill="#6f7683" d="M0 0h1.102v2.171H0z"/></symbol></defs><path class="a" d="M0 0h105v45.591H0z"/><g style="animation-duration:52.533495s;animation-iteration-count:infinite;animation-name:i;animation-timing-function:steps(1,end)"><svg width="8400"><svg><use xlink:href="#a"/><use xlink:href="#b" x="-.004"/></svg><svg x="105"><use xlink:href="#a"/><use xlink:href="#b" x="-.004"/></svg><svg x="210"><use xlink:href="#a"/><use xlink:href="#b" x="34.996"/><use xlink:href="#1"/></svg><svg x="315"><use xlink:href="#a"/><use xlink:href="#b" x="35.996"/><text y="1.67" class="f">yauheniya@MacBookPro</text><text x="21.042" y="1.67" class="f">icon-gen-ai</text><text x="33.066" y="1.67" class="f">%</text><text x="35.07" y="1.67" class="f">i</text></svg><svg x="420"><use xlink:href="#a"/><use xlink:href="#b" x="36.996"/><text y="1.67" class="f">yauheniya@MacBookPro</text><text x="21.042" y="1.67" class="f">icon-gen-ai</text><text x="33.066" y="1.67" class="f">%</text><text x="35.07" y="1.67" class="f">ic</text></svg><svg x="525"><use xlink:href="#a"/><use xlink:href="#b" x="37.996"/><text y="1.67" class="f">yauheniya@MacBookPro</text><text x="21.042" y="1.67" class="f">icon-gen-ai</text><text x="33.066" y="1.67" class="f">%</text><text x="35.07" y="1.67" class="f">ico</text></svg><svg x="630"><use xlink:href="#a"/><use xlink:href="#b" x="38.996"/><text y="1.67" class="f">yauheniya@MacBookPro</text><text x="21.042" y="1.67" class="f">icon-gen-ai</text><text x="33.066" y="1.67" class="f">%</text><text x="35.07" y="1.67" class="f">icon</text></svg><svg x="735"><use xlink:href="#a"/><use xlink:href="#b" x="39.996"/><text y="1.67" class="f">yauheniya@MacBookPro</text><text x="21.042" y="1.67" class="f">icon-gen-ai</text><text x="33.066" y="1.67" class="f">%</text><text x="35.07" y="1.67" class="f">icon-</text></svg><svg x="840"><use xlink:href="#a"/><use xlink:href="#b" x="40.996"/><text y="1.67" class="f">yauheniya@MacBookPro</text><text x="21.042" y="1.67" class="f">icon-gen-ai</text><text x="33.066" y="1.67" class="f">%</text><text x="35.07" y="1.67" class="f">icon-g</text></svg><svg x="945"><use xlink:href="#a"/><use xlink:href="#b" x="41.996"/><text y="1.67" class="f">yauheniya@MacBookPro</text><text x="21.042" y="1.67" class="f">icon-gen-ai</text><text x="33.066" y="1.67" class="f">%</text><text x="35.07" y="1.67" class="f">icon-ge</text></svg><svg x="1050"><use xlink:href="#a"/><use xlink:href="#b" x="42.996"/><text y="1.67" class="f">yauheniya@MacBookPro</text><text x="21.042" y="1.67" class="f">icon-gen-ai</text><text x="33.066" y="1.67" class="f">%</text><text x="35.07" y="1.67" class="f">icon-gen</text></svg><svg x="1155"><use xlink:href="#a"/><use xlink:href="#b" x="43.996"/><text y="1.67" class="f">yauheniya@MacBookPro</text><text x="21.042" y="1.67" class="f">icon-gen-ai</text><text x="33.066" y="1.67" class="f">%</text><text x="35.07" y="1.67" class="f">icon-gen-</text></svg><svg x="1260"><use xlink:href="#a"/><use xlink:href="#b" x="44.996"/><text y="1.67" class="f">yauheniya@MacBookPro</text><text x="21.042" y="1.67" class="f">icon-gen-ai</text><text x="33.066" y="1.67" class="f">%</text><text x="35.07" y="1.67" class="f">icon-gen-a</text></svg><svg x="1365"><use xlink:href="#a"/><use xlink:href="#b" x="45.996"/><use xlink:href="#2"/></svg><svg x="1470"><use xlink:href="#a"/><use xlink:href="#b" x="46.996"/><use xlink:href="#2"/></svg><svg x="1575"><use xlink:href="#a"/><use xlink:href="#b" x="47.996"/><text y="1.67" class="f">yauheniya@MacBookPro</text><text x="21.042" y="1.67" class="f">icon-gen-ai</text><text x="33.066" y="1.67" class="f">%</text><text x="35.07" y="1.67" class="f">icon-gen-ai</text><text x="47.094" y="1.67" class="f">g</text></svg><svg x="1680"><use xlink:href="#a"/><use xlink:href="#b" x="48.996"/><text y="1.67" class="f">yauheniya@MacBookPro</text><text x="21.042" y="1.67" class="f">icon-gen-ai</text><text x="33.066" y="1.67" class="f">%</text><text x="35.07" y="1.67" class="f">icon-gen-ai</text><text x="47.094" y="1.67" class="f">ge</text></svg><svg x="1785"><use xlink:href="#a"/><use xlink:href="#b" x="49.996"/><text y="1.67" class="f">yauheniya@MacBookPro</text><text x="21.042" y="1.67" class="f">icon-gen-ai</text><text x="33.066" y="1.67" class="f">%</text><text x="35.07" y="1.67" class="f">icon-gen-ai</text><text x="47.094" y="1.67" class="f">gen</text></svg><svg x="1890"><use xlink:href="#a"/><use xlink:href="#b" x="50.996"/><text y="1.67" class="f">yauheniya@MacBookPro</text><text x="21.042" y="1.67" class="f">icon-gen-ai</text><text x="33.066" y="1.67" class="f">%</text><text x="35.07" y="1.67" class="f">icon-gen-ai</text><text x="47.094" y="1.67" class="f">gene</text></svg><svg x="1995"><use xlink:href="#a"/><use xlink:href="#b" x="51.996"/><text y="1.67" class="f">yauheniya@MacBookPro</text><text x="21.042" y="1.67" class="f">icon-gen-ai</text><text x="33.066" y="1.67" class="f">%</text><text x="35.07" y="1.67" class="f">icon-gen-ai</text><text x="47.094" y="1.67" class="f">gener</text></svg><svg x="2100"><use xlink:href="#a"/><use xlink:href="#b" x="52.996"/><text y="1.67" class="f">yauheniya@MacBookPro</text><text x="21.042" y="1.67" class="f">icon-gen-ai</text><text x="33.066" y="1.67" class="f">%</text><text x="35.07" y="1.67" class="f">icon-gen-ai</text><text x="47.094" y="1.67" class="f">genera</text></svg><svg x="2205"><use xlink:href="#a"/><use xlink:href="#b" x="53.996"/><text y="1.67" class="f">yauheniya@MacBookPro</text><text x="21.042" y="1.67" class="f">icon-gen-ai</text><text x="33.066" y="1.67" class="f">%</text><text x="35.07" y="1.67" class="f">icon-gen-ai</text><text x="47.094" y="1.67" class="f">generat</text></svg><svg x="2310"><use xlink:href="#a"/><use xlink:href="#b" x="54.996"/><use xlink:href="#3"/></svg><svg x="2415"><use xlink:href="#a"/><use xlink:href="#b" x="55.996"/><use xlink:href="#3"/></svg><svg x="2520"><use xlink:href="#a"/><use xlink:href="#b" x="56.996"/><text y="1.67" class="f">yauheniya@MacBookPro</text><text x="21.042" y="1.67" class="f">icon-gen-ai</text><text x="33.066" y="1.67" class="f">%</text><text x="35.07" y="1.67" class="f">icon-gen-ai</text><text x="47.094" y="1.67" class="f">generate</text><text x="56.112" y="1.67" class="f">s</text></svg><svg x="2625"><use xlink:href="#a"/><use xlink:href="#b" x="57.996"/><text y="1.67" class="f">yauheniya@MacBookPro</text><text x="21.042" y="1.67" class="f">icon-gen-ai</text><text x="33.066" y="1.67" class="f">%</text><text x="35.07" y="1.67" class="f">icon-gen-ai</text><text x="47.094" y="1.67" class="f">generate</text><text x="56.112" y="1.67" class="f">si</text></svg><svg x="2730"><use xlink:href="#a"/><use xlink:href="#b" x="58.996"/><text y="1.67" class="f">yauheniya@MacBookPro</text><text x="21.042" y="1.67" class="f">icon-gen-ai</text><text x="33.066" y="1.67" class="f">%</text><text x="35.07" y="1.67" class="f">icon-gen-ai</text><text x="47.094" y="1.67" class="f">generate</text><text x="56.112" y="1.67" class="f">sim</text></svg><svg x="2835"><use xlink:href="#a"/><use xlink:href="#b" x="59.996"/><text y="1.67" class="f">yauheniya@MacBookPro</text><text x="21.042" y="1.67" class="f">icon-gen-ai</text><text x="33.066" y="1.67" class="f">%</text><text x="35.07" y="1.67" class="f">icon-gen-ai</text><text x="47.094" y="1.67" class="f">generate</text><text x="56.112" y="1.67" class="f">simp</text></svg><svg x="2940"><use xlink:href="#a"/><use xlink:href="#b" x="60.996"/><text y="1.67" class="f">yauheniya@MacBookPro</text><text x="21.042" y="1.67" class="f">icon-gen-ai</text><text x="33.066" y="1.67" class="f">%</text><text x="35.07" y="1.67" class="f">icon-gen-ai</text><text x="47.094" y="1.67" class="f">generate</text><text x="56.112" y="1.67" class="f">simpl</text></svg><svg x="3045"><use xlink:href="#a"/><use xlink:href="#b" x="61.996"/><text y="1.67" class="f">yauheniya@MacBookPro</text><text x="21.042" y="1.67" class="f">icon-gen-ai</text><text x="33.066" y="1.67" class="f">%</text><text x="35.07" y="1.67" class="f">icon-gen-ai</text><text x="47.094" y="1.67" class="f">generate</text><text x="56.112" y="1.67" class="f">simple</text></svg><svg x="3150"><use xlink:href="#a"/><use xlink:href="#b" x="62.996"/><text y="1.67" class="f">yauheniya@MacBookPro</text><text x="21.042" y="1.67" class="f">icon-gen-ai</text><text x="33.066" y="1.67" class="f">%</text><text x="35.07" y="1.67" class="f">icon-gen-ai</text><text x="47.094" y="1.67" class="f">generate</text><text x="56.112" y="1.67" class="f">simple-</text></svg><svg x="3255"><use xlink:href="#a"/><use xlink:href="#b" x="63.996"/><text y="1.67" class="f">yauheniya@MacBookPro</text><text x="21.042" y="1.67" class="f">icon-gen-ai</text><text x="33.066" y="1.67" class="f">%</text><text x="35.07" y="1.67" class="f">icon-gen-ai</text><text x="47.094" y="1.67" class="f">generate</text><text x="56.112" y="1.67" class="f">simple-i</text></svg><svg x="3360"><use xlink:href="#a"/><use xlink:href="#b" x="64.996"/><text y="1.67" class="f">yauheniya@MacBookPro</text><text x="21.042" y="1.67" class="f">icon-gen-ai</text><text x="33.066" y="1.67" class="f">%</text><text x="35.07" y="1.67" class="f">icon-gen-ai</text><text x="47.094" y="1.67" class="f">generate</text><text x="56.112" y="1.67" class="f">simple-ic</text></svg><svg x="3465"><use xlink:href="#a"/><use xlink:href="#b" x="65.996"/><text y="1.67" class="f">yauheniya@MacBookPro</text><text x="21.042" y="1.67" class="f">icon-gen-ai</text><text x="33.066" y="1.67" class="f">%</text><text x="35.07" y="1.67" class="f">icon-gen-ai</text><text x="47.094" y="1.67" class="f">generate</text><text x="56.112" y="1.67" class="f">simple-ico</text></svg><svg x="3570"><use xlink:href="#a"/><use xlink:href="#b" x="66.996"/><text y="1.67" class="f">yauheniya@MacBookPro</text><text x="21.042" y="1.67" class="f">icon-gen-ai</text><text x="33.066" y="1.67" class="f">%</text><text x="35.07" y="1.67" class="f">icon-gen-ai</text><text x="47.094" y="1.67" class="f">generate</text><text x="56.112" y="1.67" class="f">simple-icon</text></svg><svg x="3675"><use xlink:href="#a"/><use xlink:href="#b" x="67.996"/><text y="1.67" class="f">yauheniya@MacBookPro</text><text x="21.042" y="1.67" class="f">icon-gen-ai</text><text x="33.066" y="1.67" class="f">%</text><text x="35.07" y="1.67" class="f">icon-gen-ai</text><text x="47.094" y="1.67" class="f">generate</text><text x="56.112" y="1.67" class="f">simple-icons</text></svg><svg x="3780"><use xlink:href="#a"/><use xlink:href="#b" x="68.996"/><text y="1.67" class="f">yauheniya@MacBookPro</text><text x="21.042" y="1.67" class="f">icon-gen-ai</text><text x="33.066" y="1.67" class="f">%</text><text x="35.07" y="1.67" class="f">icon-gen-ai</text><text x="47.094" y="1.67" class="f">generate</text><text x="56.112" y="1.67" class="f">simple-icons:</text></svg><svg x="3885"><use xlink:href="#a"/><use xlink:href="#b" x="69.996"/><text y="1.67" class="f">yauheniya@MacBookPro</text><text x="21.042" y="1.67" class="f">icon-gen-ai</text><text x="33.066" y="1.67" class="f">%</text><text x="35.07" y="1.67" class="f">icon-gen-ai</text><text x="47.094" y="1.67" class="f">generate</text><text x="56.112" y="1.67" class="f">simple-icons:o</text></svg><svg x="3990"><use xlink:href="#a"/><use xlink:href="#b" x="70.996"/><text y="1.67" class="f">yauheniya@MacBookPro</text><text x="21.042" y="1.67" class="f">icon-gen-ai</text><text x="33.066" y="1.67" class="f">%</text><text x="35.07" y="1.67" class="f">icon-gen-ai</text><text x="47.094" y="1.67" class="f">generate</text><text x="56.112" y="1.67" class="f">simple-icons:op</text></svg><svg x="4095"><use xlink:href="#a"/><use xlink:href="#b" x="71.996"/><text y="1.67" class="f">yauheniya@MacBookPro</text><text x="21.042" y="1.67" class="f">icon-gen-ai</text><text x="33.066" y="1.67" class="f">%</text><text x="35.07" y="1.67" class="f">icon-gen-ai</text><text x="47.094" y="1.67" class="f">generate</text><text x="56.112" y="1.67" class="f">simple-icons:ope</text></svg><svg x="4200"><use xlink:href="#a"/><use xlink:href="#b" x="72.996"/><text y="1.67" class="f">yauheniya@MacBookPro</text><text x="21.042" y="1.67" class="f">icon-gen-ai</text><text x="33.066" y="1.67" class="f">%</text><text x="35.07" y="1.67" class="f">icon-gen-ai</text><text x="47.094" y="1.67" class="f">generate</text><text x="56.112" y="1.67" class="f">simple-icons:open</text></svg><svg x="4305"><use xlink:href="#a"/><use xlink:href="#b" x="73.996"/><text y="1.67" class="f">yauheniya@MacBookPro</text><text x="21.042" y="1.67" class="f">icon-gen-ai</text><text x="33.066" y="1.67" class="f">%</text><text x="35.07" y="1.67" class="f">icon-gen-ai</text><text x="47.094" y="1.67" class="f">generate</text><text x="56.112" y="1.67" class="f">simple-icons:opena</text></svg><svg x="4410"><use xlink:href="#a"/><use xlink:href="#b" x="74.996"/><use xlink:href="#4"/></svg><svg x="4515"><use xlink:href="#a"/><use xlink:href="#b" x="75.996"/><use xlink:href="#4"/></svg><svg x="4620"><use xlink:href="#a"/><use xlink:href="#b" x="76.996"/><text y="1.67" class="f">yauheniya@MacBookPro</text><text x="21.042" y="1.67" class="f">icon-gen-ai</text><text x="33.066" y="1.67" class="f">%</text><text x="35.07" y="1.67" class="f">icon-gen-ai</text><text x="47.094" y="1.67" class="f">generate</text><text x="56.112" y="1.67" class="f">simple-icons:openai</text><text x="76.152" y="1.67" class="f">-</text></svg><svg x="4725"><use xlink:href="#a"/><use xlink:href="#b" x="77.996"/><text y="1.67" class="f">yauheniya@MacBookPro</text><text x="21.042" y="1.67" class="f">icon-gen-ai</text><text x="33.066" y="1.67" class="f">%</text><text x="35.07" y="1.67" class="f">icon-gen-ai</text><text x="47.094" y="1.67" class="f">generate</text><text x="56.112" y="1.67" class="f">simple-icons:openai</text><text x="76.152" y="1.67" class="f">--</text></svg><svg x="4830"><use xlink:href="#a"/><use xlink:href="#b" x="78.996"/><text y="1.67" class="f">yauheniya@MacBookPro</text><text x="21.042" y="1.67" class="f">icon-gen-ai</text><text x="33.066" y="1.67" class="f">%</text><text x="35.07" y="1.67" class="f">icon-gen-ai</text><text x="47.094" y="1.67" class="f">generate</text><text x="56.112" y="1.67" class="f">simple-icons:openai</text><text x="76.152" y="1.67" class="f">--c</text></svg><svg x="4935"><use xlink:href="#a"/><use xlink:href="#b" x="79.996"/><text y="1.67" class="f">yauheniya@MacBookPro</text><text x="21.042" y="1.67" class="f">icon-gen-ai</text><text x="33.066" y="1.67" class="f">%</text><text x="35.07" y="1.67" class="f">icon-gen-ai</text><text x="47.094" y="1.67" class="f">generate</text><text x="56.112" y="1.67" class="f">simple-icons:openai</text><text x="76.152" y="1.67" class="f">--co</text></svg><svg x="5040"><use xlink:href="#a"/><use xlink:href="#b" x="80.996"/><text y="1.67" class="f">yauheniya@MacBookPro</text><text x="21.042" y="1.67" class="f">icon-gen-ai</text><text x="33.066" y="1.67" class="f">%</text><text x="35.07" y="1.67" class="f">icon-gen-ai</text><text x="47.094" y="1.67" class="f">generate</text><text x="56.112" y="1.67" class="f">simple-icons:openai</text><text x="76.152" y="1.67" class="f">--col</text></svg><svg x="5145"><use xlink:href="#a"/><use xlink:href="#b" x="81.996"/><text y="1.67" class="f">yauheniya@MacBookPro</text><text x="21.042" y="1.67" class="f">icon-gen-ai</text><text x="33.066" y="1.67" class="f">%</text><text x="35.07" y="1.67" class="f">icon-gen-ai</text><text x="47.094" y="1.67" class="f">generate</text><text x="56.112" y="1.67" class="f">simple-icons:openai</text><text x="76.152" y="1.67" class="f">--colo</text></svg><svg x="5250"><use xlink:href="#a"/><use xlink:href="#b" x="82.996"/><use xlink:href="#5"/></svg><svg x="5355"><use xlink:href="#a"/><use xlink:href="#b" x="83.996"/><use xlink:href="#5"/></svg><svg x="5460"><use xlink:href="#a"/><use xlink:href="#b" x="84.996"/><text y="1.67" class="f">yauheniya@MacBookPro</text><text x="21.042" y="1.67" class="f">icon-gen-ai</text><text x="33.066" y="1.67" class="f">%</text><text x="35.07" y="1.67" class="f">icon-gen-ai</text><text x="47.094" y="1.67" class="f">generate</text><text x="56.112" y="1.67" class="f">simple-icons:openai</text><text x="76.152" y="1.67" class="f">--color</text><text x="84.168" y="1.67" class="f">w</text></svg><svg x="5565"><use xlink:href="#a"/><use xlink:href="#b" x="85.996"/><text y="1.67" class="f">yauheniya@MacBookPro</text><text x="21.042" y="1.67" class="f">icon-gen-ai</text><text x="33.066" y="1.67" class="f">%</text><text x="35.07" y="1.67" class="f">icon-gen-ai</text><text x="47.094" y="1.67" class="f">generate</text><text x="56.112" y="1.67" class="f">simple-icons:openai</text><text x="76.152" y="1.67" class="f">--color</text><text x="84.168" y="1.67" class="f">wh</text></svg><svg x="5670"><use xlink:href="#a"/><use xlink:href="#b" x="86.996"/><text y="1.67" class="f">yauheniya@MacBookPro</text><text x="21.042" y="1.67" class="f">icon-gen-ai</text><text x="33.066" y="1.67" class="f">%</text><text x="35.07" y="1.67" class="f">icon-gen-ai</text><text x="47.094" y="1.67" class="f">generate</text><text x="56.112" y="1.67" class="f">simple-icons:openai</text><text x="76.152" y="1.67" class="f">--color</text><text x="84.168" y="1.67" class="f">whi</text></svg><svg x="5775"><use xlink:href="#a"/><use xlink:href="#b" x="87.996"/><text y="1.67" class="f">yauheniya@MacBookPro</text><text x="21.042" y="1.67" class="f">icon-gen-ai</text><text x="33.066" y="1.67" class="f">%</text><text x="35.07" y="1.67" class="f">icon-gen-ai</text><text x="47.094" y="1.67" class="f">generate</text><text x="56.112" y="1.67" class="f">simple-icons:openai</text><text x="76.152" y="1.67" class="f">--color</text><text x="84.168" y="1.67" class="f">whit</text></svg><svg x="5880"><use xlink:href="#a"/><use xlink:href="#b" x="88.996"/><use xlink:href="#6"/></svg><svg x="5985"><use xlink:href="#a"/><use xlink:href="#b" x="89.996"/><use xlink:href="#6"/></svg><svg x="6090"><use xlink:href="#a"/><use xlink:href="#b" x="90.996"/><text y="1.67" class="f">yauheniya@MacBookPro</text><text x="21.042" y="1.67" class="f">icon-gen-ai</text><text x="33.066" y="1.67" class="f">%</text><text x="35.07" y="1.67" class="f">icon-gen-ai</text><text x="47.094" y="1.67" class="f">generate</text><text x="56.112" y="1.67" class="f">simple-icons:openai</text><text x="76.152" y="1.67" class="f">--color</text><text x="84.168" y="1.67" class="f">white</text><text x="90.18" y="1.67" class="f">-</text></svg><svg x="6195"><use xlink:href="#a"/><use xlink:href="#b" x="91.996"/><text y="1.67" class="f">yauheniya@MacBookPro</text><text x="21.042" y="1.67" class="f">icon-gen-ai</text><text x="33.066" y="1.67" class="f">%</text><text x="35.07" y="1.67" class="f">icon-gen-ai</text><text x="47.094" y="1.67" class="f">generate</text><text x="56.112" y="1.67" class="f">simple-icons:openai</text><text x="76.152" y="1.67" class="f">--color</text><text x="84.168" y="1.67" class="f">white</text><text x="90.18" y="1.67" class="f">--</text></svg><svg x="6300"><use xlink:href="#a"/><use xlink:href="#b" x="92.996"/><text y="1.67" class="f">yauheniya@MacBookPro</text><text x="21.042" y="1.67" class="f">icon-gen-ai</text><text x="33.066" y="1.67" class="f">%</text><text x="35.07" y="1.67" class="f">icon-gen-ai</text><text x="47.094" y="1.67" class="f">generate</text><text x="56.112" y="1.67" class="f">simple-icons:openai</text><text x="76.152" y="1.67" class="f">--color</text><text x="84.168" y="1.67" class="f">white</text><text x="90.18" y="1.67" class="f">--s</text></svg><svg x="6405"><use xlink:href="#a"/><use xlink:href="#b" x="93.996"/><text y="1.67" class="f">yauheniya@MacBookPro</text><text x="21.042" y="1.67" class="f">icon-gen-ai</text><text x="33.066" y="1.67" class="f">%</text><text x="35.07" y="1.67" class="f">icon-gen-ai</text><text x="47.094" y="1.67" class="f">generate</text><text x="56.112" y="1.67" class="f">simple-icons:openai</text><text x="76.152" y="1.67" class="f">--color</text><text x="84.168" y="1.67" class="f">white</text><text x="90.18" y="1.67" class="f">--si</text></svg><svg x="6510"><use xlink:href="#a"/><use xlink:href="#b" x="94.996"/><text y="1.67" class="f">yauheniya@MacBookPro</text><text x="21.042" y="1.67" class="f">icon-gen-ai</text><text x="33.066" y="1.67" class="f">%</text><text x="35.07" y="1.67" class="f">icon-gen-ai</text><text x="47.094" y="1.67" class="f">generate</text><text x="56.112" y="1.67" class="f">simple-icons:openai</text><text x="76.152" y="1.67" class="f">--color</text><text x="84.168" y="1.67" class="f">white</text><text x="90.18" y="1.67" class="f">--siz</text></svg><svg x="6615"><use xlink:href="#a"/><use xlink:href="#b" x="95.996"/><use xlink:href="#7"/></svg><svg x="6720"><use xlink:href="#a"/><use xlink:href="#b" x="96.996"/><use xlink:href="#7"/></svg><svg x="6825"><use xlink:href="#a"/><use xlink:href="#b" x="97.996"/><text y="1.67" class="f">yauheniya@MacBookPro</text><text x="21.042" y="1.67" class="f">icon-gen-ai</text><text x="33.066" y="1.67" class="f">%</text><text x="35.07" y="1.67" class="f">icon-gen-ai</text><text x="47.094" y="1.67" class="f">generate</text><text x="56.112" y="1.67" class="f">simple-icons:openai</text><text x="76.152" y="1.67" class="f">--color</text><text x="84.168" y="1.67" class="f">white</text><text x="90.18" y="1.67" class="f">--size</text><text x="97.194" y="1.67" class="f">2</text></svg><svg x="6930"><use xlink:href="#a"/><use xlink:href="#b" x="98.996"/><text y="1.67" class="f">yauheniya@MacBookPro</text><text x="21.042" y="1.67" class="f">icon-gen-ai</text><text x="33.066" y="1.67" class="f">%</text><text x="35.07" y="1.67" class="f">icon-gen-ai</text><text x="47.094" y="1.67" class="f">generate</text><text x="56.112" y="1.67" class="f">simple-icons:openai</text><text x="76.152" y="1.67" class="f">--color</text><text x="84.168" y="1.67" class="f">white</text><text x="90.18" y="1.67" class="f">--size</text><text x="97.194" y="1.67" class="f">25</text></svg><svg x="7035"><use xlink:href="#a"/><use xlink:href="#b" x="99.996"/><use xlink:href="#8"/></svg><svg x="7140"><use xlink:href="#a"/><use xlink:href="#b" x="-.004" y="2.146"/><use xlink:href="#8"/></svg><svg x="7245"><use xlink:href="#a"/><use xlink:href="#b" x="-.004" y="13.001"/><use xlink:href="#8"/><use xlink:href="#9" y="2.171"/><use xlink:href="#10" y="4.342"/><use xlink:href="#11" y="6.513"/><use xlink:href="#12" y="8.684"/><use xlink:href="#13" y="10.855"/></svg><svg x="7350"><use xlink:href="#a"/><use xlink:href="#b" x="-.004" y="15.172"/><use xlink:href="#8"/><use xlink:href="#9" y="2.171"/><use xlink:href="#10" y="4.342"/><use xlink:href="#11" y="6.513"/><use xlink:href="#12" y="8.684"/><use xlink:href="#13" y="10.855"/><use xlink:href="#14" y="13.026"/></svg><svg x="7455"><use xlink:href="#a"/><use xlink:href="#b" x="-.004" y="15.172"/><use xlink:href="#8"/><use xlink:href="#9" y="2.171"/><use xlink:href="#10" y="4.342"/><use xlink:href="#11" y="6.513"/><use xlink:href="#12" y="8.684"/><use xlink:href="#13" y="10.855"/><use xlink:href="#14" y="13.026"/></svg><svg x="7560"><use xlink:href="#a"/><use xlink:href="#b" x="34.996" y="15.172"/><use xlink:href="#8"/><use xlink:href="#9" y="2.171"/><use xlink:href="#10" y="4.342"/><use xlink:href="#11" y="6.513"/><use xlink:href="#12" y="8.684"/><use xlink:href="#13" y="10.855"/><use xlink:href="#14" y="13.026"/><use xlink:href="#1" y="15.197"/></svg><svg x="7665"><use xlink:href="#a"/><use xlink:href="#b" x="34.996" y="15.172"/><use xlink:href="#8"/><use xlink:href="#9" y="2.171"/><use xlink:href="#10" y="4.342"/><use xlink:href="#11" y="6.513"/><use xlink:href="#12" y="8.684"/><use xlink:href="#13" y="10.855"/><use xlink:href="#14" y="13.026"/><use xlink:href="#1" y="15.197"/></svg><svg x="7770"><use xlink:href="#a"/><use xlink:href="#b" x="34.996" y="15.172"/><use xlink:href="#8"/><use xlink:href="#9" y="2.171"/><use xlink:href="#10" y="4.342"/><use xlink:href="#11" y="6.513"/><use xlink:href="#12" y="8.684"/><use xlink:href="#13" y="10.855"/><use xlink:href="#14" y="13.026"/><use xlink:href="#1" y="15.197"/></svg><svg x="7875"><use xlink:href="#a"/><use xlink:href="#b" x="35.996" y="15.172"/><use xlink:href="#8"/><use xlink:href="#9" y="2.171"/><use xlink:href="#10" y="4.342"/><use xlink:href="#11" y="6.513"/><use xlink:href="#12" y="8.684"/><use xlink:href="#13" y="10.855"/><use xlink:href="#14" y="13.026"/><text y="16.867" class="f">yauheniya@MacBookPro</text><text x="21.042" y="16.867" class="f">icon-gen-ai</text><text x="33.066" y="16.867" class="f">%</text><text x="35.07" y="16.867" class="f">e</text></svg><svg x="7980"><use xlink:href="#a"/><use xlink:href="#b" x="36.996" y="15.172"/><use xlink:href="#8"/><use xlink:href="#9" y="2.171"/><use xlink:href="#10" y="4.342"/><use xlink:href="#11" y="6.513"/><use xlink:href="#12" y="8.684"/><use xlink:href="#13" y="10.855"/><use xlink:href="#14" y="13.026"/><text y="16.867" class="f">yauheniya@MacBookPro</text><text x="21.042" y="16.867" class="f">icon-gen-ai</text><text x="33.066" y="16.867" class="f">%</text><text x="35.07" y="16.867" class="f">ex</text></svg><svg x="8085"><use xlink:href="#a"/><use xlink:href="#b" x="37.996" y="15.172"/><use xlink:href="#8"/><use xlink:href="#9" y="2.171"/><use xlink:href="#10" y="4.342"/><use xlink:href="#11" y="6.513"/><use xlink:href="#12" y="8.684"/><use xlink:href="#13" y="10.855"/><use xlink:href="#14" y="13.026"/><text y="16.867" class="f">yauheniya@MacBookPro</text><text x="21.042" y="16.867" class="f">icon-gen-ai</text><text x="33.066" y="16.867" class="f">%</text><text x="35.07" y="16.867" class="f">exi</text></svg><svg x="8190"><use xlink:href="#a"/><use xlink:href="#b" x="38.996" y="15.172"/><use xlink:href="#8"/><use xlink:href="#9" y="2.171"/><use xlink:href="#10" y="4.342"/><use xlink:href="#11" y="6.513"/><use xlink:href="#12" y="8.684"/><use xlink:href="#13" y="10.855"/><use xlink:href="#14" y="13.026"/><use xlink:href="#15" y="15.197"/></svg><svg x="8295"><use xlink:href="#a"/><use xlink:href="#b" x="-.004" y="17.343"/><use xlink:href="#8"/><use xlink:href="#9" y="2.171"/><use xlink:href="#10" y="4.342"/><use xlink:href="#11" y="6.513"/><use xlink:href="#12" y="8.684"/><use xlink:href="#13" y="10.855"/><use xlink:href="#14" y="13.026"/><use xlink:href="#15" y="15.197"/></svg></svg></g></g></svg></svg>